<?xml version="1.0" encoding="UTF-8" standalone="no"?>
<!-- Created with Inkscape (http://www.inkscape.org/) -->

<svg
   width="432.57611mm"
   height="277.29999mm"
   viewBox="0 0 432.57611 277.29999"
   version="1.1"
   id="svg1"
   inkscape:version="1.3 (0e150ed6c4, 2023-07-21)"
   sodipodi:docname="bordspil_lok_V24.svg"
   xmlns:inkscape="http://www.inkscape.org/namespaces/inkscape"
   xmlns:sodipodi="http://sodipodi.sourceforge.net/DTD/sodipodi-0.dtd"
   xmlns="http://www.w3.org/2000/svg"
   xmlns:svg="http://www.w3.org/2000/svg">
  <sodipodi:namedview
     id="namedview1"
     pagecolor="#ffffff"
     bordercolor="#000000"
     borderopacity="0.25"
     inkscape:showpageshadow="2"
     inkscape:pageopacity="0.0"
     inkscape:pagecheckerboard="0"
     inkscape:deskcolor="#d1d1d1"
     inkscape:document-units="mm"
     showguides="true"
     inkscape:zoom="0.73139029"
     inkscape:cx="842.91521"
     inkscape:cy="553.05629"
     inkscape:window-width="1920"
     inkscape:window-height="1017"
     inkscape:window-x="-8"
     inkscape:window-y="-8"
     inkscape:window-maximized="1"
     inkscape:current-layer="layer2" />
  <defs
     id="defs1" />
  <g
     inkscape:label="Layer 1"
     inkscape:groupmode="layer"
     id="layer1"
     transform="translate(118.00414,-60.324962)"
     sodipodi:insensitive="true">
    <g
       id="panel977"
       transform="rotate(90,399.08545,1.010412)">
      <path
         style="fill:none;stroke:#000000;stroke-width:1"
         d="m 458.9,91.3 c 11.50333,-6.971567 23.00667,-7.139031 34.51,0 v 3.1 h 25.9 v -3.1 h 34.56 v 3.1 h 25.9 v -3.1 h 34.56 v 3.1 h 25.9 v -3.1 h 34.56 v 3.1 h 25.9 v -3.1 c 10.13755,-6.659421 21.48027,-7.44255 34.51,0"
         id="path40"
         sodipodi:nodetypes="cccccccccccccccccc" />
      <path
         style="fill:none;stroke:#000000;stroke-width:1"
         d="m 735.2,91.3 v 30.588 h -3.1 v 25.899 h 3.1 v 30.638 h -3.1 v 25.9 h 3.1 v 30.638 h -3.1 v 25.9 h 3.1 V 291.5 h -3.1 v 25.9 h 3.1 v 30.637 h -3.1 v 25.9 h 3.1 v 30.638 h -3.1 v 25.9 h 3.1 v 30.637 h -3.1 v 25.9 h 3.1 V 517.6"
         id="path41" />
      <path
         style="fill:none;stroke:#000000;stroke-width:1"
         d="m 735.2,517.6 h -34.51 v -3.1 h -25.9 v 3.1 h -34.56 v -3.1 h -25.9 v 3.1 h -34.56 v -3.1 h -25.9 v 3.1 h -34.56 v -3.1 h -25.9 v 3.1 H 458.9"
         id="path42" />
      <path
         style="fill:none;stroke:#000000;stroke-width:1"
         d="m 458.9,517.6 v -30.587 h 3.1 v -25.9 h -3.1 v -30.638 h 3.1 v -25.9 h -3.1 v -30.637 h 3.1 v -25.9 h -3.1 V 317.4 h 3.1 v -25.9 h -3.1 v -30.637 h 3.1 v -25.9 h -3.1 v -30.638 h 3.1 v -25.9 h -3.1 v -30.637 h 3.1 v -25.9 h -3.1 V 91.3"
         id="path43" />
    </g>
  </g>
  <g
     inkscape:groupmode="layer"
     id="layer2"
     inkscape:label="Layer 2" />
</svg>
