<?xml version="1.0" encoding="UTF-8" standalone="no"?>
<!-- Created with Inkscape (http://www.inkscape.org/) -->

<svg
   width="429.59482mm"
   height="286.60706mm"
   viewBox="0 0 429.59482 286.60706"
   version="1.1"
   id="svg1"
   inkscape:version="1.3.1 (91b66b0783, 2023-11-16)"
   sodipodi:docname="bordspil_lok (2).svg"
   xml:space="preserve"
   xmlns:inkscape="http://www.inkscape.org/namespaces/inkscape"
   xmlns:sodipodi="http://sodipodi.sourceforge.net/DTD/sodipodi-0.dtd"
   xmlns="http://www.w3.org/2000/svg"
   xmlns:svg="http://www.w3.org/2000/svg"><sodipodi:namedview
     id="namedview1"
     pagecolor="#ffffff"
     bordercolor="#000000"
     borderopacity="0.25"
     inkscape:showpageshadow="2"
     inkscape:pageopacity="0.0"
     inkscape:pagecheckerboard="0"
     inkscape:deskcolor="#d1d1d1"
     inkscape:document-units="mm"
     inkscape:zoom="0.36569515"
     inkscape:cx="654.91708"
     inkscape:cy="608.43027"
     inkscape:window-width="1920"
     inkscape:window-height="1017"
     inkscape:window-x="-8"
     inkscape:window-y="-8"
     inkscape:window-maximized="1"
     inkscape:current-layer="layer2" /><defs
     id="defs1" /><g
     inkscape:label="Layer 1"
     inkscape:groupmode="layer"
     id="layer1"
     style="display:inline"
     transform="translate(-5,-4.9999996)"><g
       id="panel4712"
       transform="translate(-566.8,-63.512406)"><path
         style="fill:none;stroke:#000000;stroke-width:0.5;stroke-dasharray:none"
         d="m 572.3,76.1 h 26.283 v 3 h 22.9 v -3 h 26.334 v 3 h 22.9 v -3 h 26.333 v 3 h 22.9 v -3 h 26.333 v 3 h 22.9 v -3 h 26.334 v 3 h 22.9 v -3 h 26.333 v 3 h 22.9 v -3 h 26.333 v 3 h 22.9 v -3 h 26.334 v 3 h 22.9 v -3 c 6.67098,-6.856828 19.30946,-11.393431 28.6887,-0.788398 C 1004.1849,85.916634 998.99344,95.97416 992.4,102 h -3 v 22.9 h 3 v 25.95 h -3 v 22.9 h 3 v 25.95 h -3 v 22.9 h 3 v 25.95 h -3 v 22.9 h 3 v 25.95 h -3 v 22.9 c 0.94305,0 2.69215,-0.27786 3,0 7.1663,6.46825 13.3954,18.53138 2.95767,28.80971 -10.43775,10.27833 -22.66639,4.35124 -29.24067,-2.90971 v -3 h -22.9 v 3 h -26.334 v -3 h -22.9 v 3 H 867.65 v -3 h -22.9 v 3 h -26.333 v -3 h -22.9 v 3 h -26.334 v -3 h -22.9 v 3 H 719.95 v -3 h -22.9 v 3 h -26.333 v -3 h -22.9 v 3 h -26.334 v -3 h -22.9 v 3 H 572.3"
         id="path733"
         sodipodi:nodetypes="ccccccccccccccccccccccccccccccccczcccccccccccccccccccszccccccccccccccccccccccccccccccccc" /><path
         style="fill:none;stroke:#000000;stroke-width:1"
         d="m 572.3,346.2 v -25.9 h 3 v -22.9 h -3 v -25.95 h 3 v -22.9 h -3 V 222.6 h 3 v -22.9 h -3 v -25.95 h 3 v -22.9 h -3 V 124.9 h 3 V 102 h -3 V 76.1"
         id="path736"
         sodipodi:nodetypes="cccccccccccccccccccccc" /></g></g><g
     inkscape:groupmode="layer"
     id="layer2"
     inkscape:label="Layer 2"
     transform="translate(-5,-4.9999996)"><circle
       style="fill:none;stroke:#000000;stroke-width:0.5;stroke-dasharray:none"
       id="path1"
       cx="341.06943"
       cy="195.10172"
       r="29" /></g></svg>
