<?xml version="1.0" encoding="UTF-8" standalone="no"?>
<!-- Created with Inkscape (http://www.inkscape.org/) -->

<svg
   width="210mm"
   height="297mm"
   viewBox="0 0 210 297"
   version="1.1"
   id="svg1"
   inkscape:export-filename="bitmap.png"
   inkscape:export-xdpi="96"
   inkscape:export-ydpi="96"
   inkscape:version="1.3 (0e150ed6c4, 2023-07-21)"
   sodipodi:docname="GND_tenging_takkar_simonish.svg"
   xmlns:inkscape="http://www.inkscape.org/namespaces/inkscape"
   xmlns:sodipodi="http://sodipodi.sourceforge.net/DTD/sodipodi-0.dtd"
   xmlns="http://www.w3.org/2000/svg"
   xmlns:svg="http://www.w3.org/2000/svg">
  <sodipodi:namedview
     id="namedview1"
     pagecolor="#ffffff"
     bordercolor="#000000"
     borderopacity="0.25"
     inkscape:showpageshadow="2"
     inkscape:pageopacity="0.0"
     inkscape:pagecheckerboard="0"
     inkscape:deskcolor="#d1d1d1"
     inkscape:document-units="mm"
     showguides="true"
     inkscape:zoom="1.4627806"
     inkscape:cx="325.74947"
     inkscape:cy="360.61457"
     inkscape:window-width="1920"
     inkscape:window-height="1017"
     inkscape:window-x="-8"
     inkscape:window-y="-8"
     inkscape:window-maximized="1"
     inkscape:current-layer="layer1">
    <sodipodi:guide
       position="99.979748,169.25564"
       orientation="1,0"
       id="guide2"
       inkscape:locked="false" />
    <sodipodi:guide
       position="109.00099,170.72526"
       orientation="1,0"
       id="guide3"
       inkscape:locked="false" />
    <sodipodi:guide
       position="103.64251,172.96362"
       orientation="0,-1"
       id="guide4"
       inkscape:locked="false" />
    <sodipodi:guide
       position="97.764008,160.34744"
       orientation="0,-1"
       id="guide5"
       inkscape:locked="false" />
  </sodipodi:namedview>
  <defs
     id="defs1">
    <rect
       x="341.27975"
       y="456.32873"
       width="8.0969345"
       height="13.172625"
       id="rect10" />
  </defs>
  <g
     inkscape:label="Layer 1"
     inkscape:groupmode="layer"
     id="layer1">
    <text
       xml:space="preserve"
       transform="matrix(0.26455508,0,0,0.27174699,0.01118601,-1.1538152)"
       id="text9"
       style="white-space:pre;shape-inside:url(#rect10);fill:none;stroke:#000000;stroke-width:1.88976;stroke-dasharray:none" />
    <g
       id="g14"
       transform="matrix(3.2157121,0,0,2.9654909,-267.17722,-290.76923)">
      <circle
         style="fill:none;stroke:#000000;stroke-width:0.5;stroke-dasharray:none"
         id="path1"
         cx="104.71566"
         cy="129.48235"
         r="9.7560978" />
      <rect
         style="fill:none;stroke:#000000;stroke-width:0.5;stroke-dasharray:none"
         id="rect1"
         width="2.7088611"
         height="0.38973814"
         x="100.90319"
         y="124.45326" />
      <rect
         style="fill:none;stroke:#000000;stroke-width:0.5;stroke-dasharray:none"
         id="rect2"
         width="2.7088611"
         height="0.38973814"
         x="106.41993"
         y="124.43064" />
      <rect
         style="fill:none;stroke:#000000;stroke-width:0.5;stroke-dasharray:none"
         id="rect4"
         width="2.7088611"
         height="0.38973814"
         x="99.858101"
         y="135.73483" />
      <rect
         style="fill:none;stroke:#000000;stroke-width:0.5;stroke-dasharray:none"
         id="rect5"
         width="2.7088611"
         height="0.38973814"
         x="105.37484"
         y="135.71222" />
      <rect
         style="fill:none;stroke:#000000;stroke-width:0.2;stroke-dasharray:none"
         id="rect6"
         width="6.7679343"
         height="4.7679338"
         x="101.28305"
         y="127.03402"
         rx="0.71028322"
         ry="0.84245872" />
      <rect
         style="fill:none;stroke:#000000;stroke-width:0.5;stroke-dasharray:none"
         id="rect7"
         width="13.491335"
         height="11.491335"
         x="97.717171"
         y="123.30019"
         rx="1.4158926"
         ry="2.0304344" />
      <path
         id="rect8"
         style="fill:none;stroke:#000000;stroke-width:0.161093"
         d="m 102.43747,128.33912 1.26027,0.94435 c 0.31648,-0.35053 0.56577,-1.02949 0.94947,-1.05162 0.45927,-0.007 0.6833,0.64588 1.02494,0.96882 l 1.20147,-0.87435 -0.84857,2.26108 h -2.73899 z"
         sodipodi:nodetypes="cccccccc" />
      <path
         id="rect9"
         style="fill:none;stroke:#000000;stroke-width:0.350557;stroke-dasharray:none"
         d="m 99.903972,130.94834 0.153498,0.005 0.0161,1.52641 h 0.19506 l -0.284606,0.47077 -0.275027,-0.47077 0.207867,0.005 z"
         sodipodi:nodetypes="cccccccc" />
      <path
         id="path9"
         style="fill:none;stroke:#000000;stroke-width:0.351197;stroke-dasharray:none"
         d="m 109.38594,130.4189 0.1538,0.004 0.0161,1.52897 h 0.19545 l -0.28516,0.47155 -0.27557,-0.47155 0.20827,0.004 z"
         sodipodi:nodetypes="cccccccc" />
      <text
         xml:space="preserve"
         style="font-size:3.175px;fill:none;stroke:#000000;stroke-width:0.3;stroke-dasharray:none"
         x="108.20284"
         y="129.62598"
         id="text11"><tspan
           sodipodi:role="line"
           id="tspan11"
           style="stroke-width:0.3;stroke-dasharray:none"
           x="108.20284"
           y="129.62598">+</tspan></text>
      <text
         xml:space="preserve"
         style="font-size:2.94952px;fill:none;stroke:#000000;stroke-width:0.278694;stroke-dasharray:none"
         x="118.86662"
         y="106.89126"
         id="text12"
         transform="scale(0.83352214,1.1997282)"><tspan
           sodipodi:role="line"
           style="stroke-width:0.278694;stroke-dasharray:none"
           x="118.86662"
           y="106.89126"
           id="tspan13">_</tspan></text>
    </g>
    <g
       id="g22"
       transform="matrix(3.2157121,0,0,2.9654909,-160.90865,-290.23285)">
      <circle
         style="fill:none;stroke:#000000;stroke-width:0.5;stroke-dasharray:none"
         id="circle14"
         cx="104.71566"
         cy="129.48235"
         r="9.7560978" />
      <rect
         style="fill:none;stroke:#000000;stroke-width:0.5;stroke-dasharray:none"
         id="rect14"
         width="2.7088611"
         height="0.38973814"
         x="100.90319"
         y="124.45326" />
      <rect
         style="fill:none;stroke:#000000;stroke-width:0.5;stroke-dasharray:none"
         id="rect15"
         width="2.7088611"
         height="0.38973814"
         x="106.41993"
         y="124.43064" />
      <rect
         style="fill:none;stroke:#000000;stroke-width:0.5;stroke-dasharray:none"
         id="rect16"
         width="2.7088611"
         height="0.38973814"
         x="99.858101"
         y="135.73483" />
      <rect
         style="fill:none;stroke:#000000;stroke-width:0.5;stroke-dasharray:none"
         id="rect17"
         width="2.7088611"
         height="0.38973814"
         x="105.37484"
         y="135.71222" />
      <rect
         style="fill:none;stroke:#000000;stroke-width:0.2;stroke-dasharray:none"
         id="rect18"
         width="6.7679343"
         height="4.7679338"
         x="101.28305"
         y="127.03402"
         rx="0.71028322"
         ry="0.84245872" />
      <rect
         style="fill:none;stroke:#000000;stroke-width:0.5;stroke-dasharray:none"
         id="rect19"
         width="13.491335"
         height="11.491335"
         x="97.717171"
         y="123.30019"
         rx="1.4158926"
         ry="2.0304344" />
      <path
         id="path19"
         style="fill:none;stroke:#000000;stroke-width:0.161093"
         d="m 102.43747,128.33912 1.26027,0.94435 c 0.31648,-0.35053 0.56577,-1.02949 0.94947,-1.05162 0.45927,-0.007 0.6833,0.64588 1.02494,0.96882 l 1.20147,-0.87435 -0.84857,2.26108 h -2.73899 z"
         sodipodi:nodetypes="cccccccc" />
      <path
         id="path20"
         style="fill:none;stroke:#000000;stroke-width:0.350557;stroke-dasharray:none"
         d="m 99.903972,130.94834 0.153498,0.005 0.0161,1.52641 h 0.19506 l -0.284606,0.47077 -0.275027,-0.47077 0.207867,0.005 z"
         sodipodi:nodetypes="cccccccc" />
      <path
         id="path21"
         style="fill:none;stroke:#000000;stroke-width:0.351197;stroke-dasharray:none"
         d="m 109.38594,130.4189 0.1538,0.004 0.0161,1.52897 h 0.19545 l -0.28516,0.47155 -0.27557,-0.47155 0.20827,0.004 z"
         sodipodi:nodetypes="cccccccc" />
      <text
         xml:space="preserve"
         style="font-size:3.175px;fill:none;stroke:#000000;stroke-width:0.3;stroke-dasharray:none"
         x="108.20284"
         y="129.62598"
         id="text21"><tspan
           sodipodi:role="line"
           id="tspan21"
           style="stroke-width:0.3;stroke-dasharray:none"
           x="108.20284"
           y="129.62598">+</tspan></text>
      <text
         xml:space="preserve"
         style="font-size:2.94952px;fill:none;stroke:#000000;stroke-width:0.278694;stroke-dasharray:none"
         x="118.86662"
         y="106.89126"
         id="text22"
         transform="scale(0.83352214,1.1997282)"><tspan
           sodipodi:role="line"
           style="stroke-width:0.278694;stroke-dasharray:none"
           x="118.86662"
           y="106.89126"
           id="tspan22">_</tspan></text>
    </g>
    <g
       id="g30"
       transform="matrix(3.2157121,0,0,2.9654909,-267.17722,-192.75242)">
      <circle
         style="fill:none;stroke:#000000;stroke-width:0.5;stroke-dasharray:none"
         id="circle22"
         cx="104.71566"
         cy="129.48235"
         r="9.7560978" />
      <rect
         style="fill:none;stroke:#000000;stroke-width:0.5;stroke-dasharray:none"
         id="rect22"
         width="2.7088611"
         height="0.38973814"
         x="100.90319"
         y="124.45326" />
      <rect
         style="fill:none;stroke:#000000;stroke-width:0.5;stroke-dasharray:none"
         id="rect23"
         width="2.7088611"
         height="0.38973814"
         x="106.41993"
         y="124.43064" />
      <rect
         style="fill:none;stroke:#000000;stroke-width:0.5;stroke-dasharray:none"
         id="rect24"
         width="2.7088611"
         height="0.38973814"
         x="99.858101"
         y="135.73483" />
      <rect
         style="fill:none;stroke:#000000;stroke-width:0.5;stroke-dasharray:none"
         id="rect25"
         width="2.7088611"
         height="0.38973814"
         x="105.37484"
         y="135.71222" />
      <rect
         style="fill:none;stroke:#000000;stroke-width:0.2;stroke-dasharray:none"
         id="rect26"
         width="6.7679343"
         height="4.7679338"
         x="101.28305"
         y="127.03402"
         rx="0.71028322"
         ry="0.84245872" />
      <rect
         style="fill:none;stroke:#000000;stroke-width:0.5;stroke-dasharray:none"
         id="rect27"
         width="13.491335"
         height="11.491335"
         x="97.717171"
         y="123.30019"
         rx="1.4158926"
         ry="2.0304344" />
      <path
         id="path27"
         style="fill:none;stroke:#000000;stroke-width:0.161093"
         d="m 102.43747,128.33912 1.26027,0.94435 c 0.31648,-0.35053 0.56577,-1.02949 0.94947,-1.05162 0.45927,-0.007 0.6833,0.64588 1.02494,0.96882 l 1.20147,-0.87435 -0.84857,2.26108 h -2.73899 z"
         sodipodi:nodetypes="cccccccc" />
      <path
         id="path28"
         style="fill:none;stroke:#000000;stroke-width:0.350557;stroke-dasharray:none"
         d="m 99.903972,130.94834 0.153498,0.005 0.0161,1.52641 h 0.19506 l -0.284606,0.47077 -0.275027,-0.47077 0.207867,0.005 z"
         sodipodi:nodetypes="cccccccc" />
      <path
         id="path29"
         style="fill:none;stroke:#000000;stroke-width:0.351197;stroke-dasharray:none"
         d="m 109.38594,130.4189 0.1538,0.004 0.0161,1.52897 h 0.19545 l -0.28516,0.47155 -0.27557,-0.47155 0.20827,0.004 z"
         sodipodi:nodetypes="cccccccc" />
      <text
         xml:space="preserve"
         style="font-size:3.175px;fill:none;stroke:#000000;stroke-width:0.3;stroke-dasharray:none"
         x="108.20284"
         y="129.62598"
         id="text29"><tspan
           sodipodi:role="line"
           id="tspan29"
           style="stroke-width:0.3;stroke-dasharray:none"
           x="108.20284"
           y="129.62598">+</tspan></text>
      <text
         xml:space="preserve"
         style="font-size:2.94952px;fill:none;stroke:#000000;stroke-width:0.278694;stroke-dasharray:none"
         x="118.86662"
         y="106.89126"
         id="text30"
         transform="scale(0.83352214,1.1997282)"><tspan
           sodipodi:role="line"
           style="stroke-width:0.278694;stroke-dasharray:none"
           x="118.86662"
           y="106.89126"
           id="tspan30">_</tspan></text>
    </g>
    <g
       id="g38"
       transform="matrix(3.2157121,0,0,2.9654909,-160.90865,-192.21603)">
      <circle
         style="fill:none;stroke:#000000;stroke-width:0.5;stroke-dasharray:none"
         id="circle30"
         cx="104.71566"
         cy="129.48235"
         r="9.7560978" />
      <rect
         style="fill:none;stroke:#000000;stroke-width:0.5;stroke-dasharray:none"
         id="rect30"
         width="2.7088611"
         height="0.38973814"
         x="100.90319"
         y="124.45326" />
      <rect
         style="fill:none;stroke:#000000;stroke-width:0.5;stroke-dasharray:none"
         id="rect31"
         width="2.7088611"
         height="0.38973814"
         x="106.41993"
         y="124.43064" />
      <rect
         style="fill:none;stroke:#000000;stroke-width:0.5;stroke-dasharray:none"
         id="rect32"
         width="2.7088611"
         height="0.38973814"
         x="99.858101"
         y="135.73483" />
      <rect
         style="fill:none;stroke:#000000;stroke-width:0.5;stroke-dasharray:none"
         id="rect33"
         width="2.7088611"
         height="0.38973814"
         x="105.37484"
         y="135.71222" />
      <rect
         style="fill:none;stroke:#000000;stroke-width:0.2;stroke-dasharray:none"
         id="rect34"
         width="6.7679343"
         height="4.7679338"
         x="101.28305"
         y="127.03402"
         rx="0.71028322"
         ry="0.84245872" />
      <rect
         style="fill:none;stroke:#000000;stroke-width:0.5;stroke-dasharray:none"
         id="rect35"
         width="13.491335"
         height="11.491335"
         x="97.717171"
         y="123.30019"
         rx="1.4158926"
         ry="2.0304344" />
      <path
         id="path35"
         style="fill:none;stroke:#000000;stroke-width:0.161093"
         d="m 102.43747,128.33912 1.26027,0.94435 c 0.31648,-0.35053 0.56577,-1.02949 0.94947,-1.05162 0.45927,-0.007 0.6833,0.64588 1.02494,0.96882 l 1.20147,-0.87435 -0.84857,2.26108 h -2.73899 z"
         sodipodi:nodetypes="cccccccc" />
      <path
         id="path36"
         style="fill:none;stroke:#000000;stroke-width:0.350557;stroke-dasharray:none"
         d="m 99.903972,130.94834 0.153498,0.005 0.0161,1.52641 h 0.19506 l -0.284606,0.47077 -0.275027,-0.47077 0.207867,0.005 z"
         sodipodi:nodetypes="cccccccc" />
      <path
         id="path37"
         style="fill:none;stroke:#000000;stroke-width:0.351197;stroke-dasharray:none"
         d="m 109.38594,130.4189 0.1538,0.004 0.0161,1.52897 h 0.19545 l -0.28516,0.47155 -0.27557,-0.47155 0.20827,0.004 z"
         sodipodi:nodetypes="cccccccc" />
      <text
         xml:space="preserve"
         style="font-size:3.175px;fill:none;stroke:#000000;stroke-width:0.3;stroke-dasharray:none"
         x="108.20284"
         y="129.62598"
         id="text37"><tspan
           sodipodi:role="line"
           id="tspan37"
           style="stroke-width:0.3;stroke-dasharray:none"
           x="108.20284"
           y="129.62598">+</tspan></text>
      <text
         xml:space="preserve"
         style="font-size:2.94952px;fill:none;stroke:#000000;stroke-width:0.278694;stroke-dasharray:none"
         x="118.86662"
         y="106.89126"
         id="text38"
         transform="scale(0.83352214,1.1997282)"><tspan
           sodipodi:role="line"
           style="stroke-width:0.278694;stroke-dasharray:none"
           x="118.86662"
           y="106.89126"
           id="tspan38">_</tspan></text>
    </g>
    <ellipse
       style="fill:#ff00ff;stroke:none;stroke-width:0.926421;stroke-dasharray:none"
       id="path38"
       cx="57.964867"
       cy="210.21808"
       rx="3.4898896"
       ry="3.218334" />
    <ellipse
       style="fill:#ff00ff;stroke:none;stroke-width:0.926421;stroke-dasharray:none"
       id="circle38"
       cx="60.873131"
       cy="176.69377"
       rx="3.4898896"
       ry="3.218334" />
    <ellipse
       style="fill:#ff00ff;stroke:none;stroke-width:0.926421;stroke-dasharray:none"
       id="circle39"
       cx="58.837284"
       cy="112.05886"
       rx="3.4898896"
       ry="3.218334" />
    <ellipse
       style="fill:#ff00ff;stroke:none;stroke-width:0.926421;stroke-dasharray:none"
       id="circle40"
       cx="61.745628"
       cy="78.534569"
       rx="3.4898896"
       ry="3.218334" />
    <ellipse
       style="fill:#ff00ff;stroke:none;stroke-width:0.926421;stroke-dasharray:none"
       id="circle41"
       cx="164.69824"
       cy="211.02266"
       rx="3.4898896"
       ry="3.218334" />
    <ellipse
       style="fill:#ff00ff;stroke:none;stroke-width:0.926421;stroke-dasharray:none"
       id="circle42"
       cx="167.60654"
       cy="177.49835"
       rx="3.4898896"
       ry="3.218334" />
    <ellipse
       style="fill:#ff00ff;stroke:none;stroke-width:0.926421;stroke-dasharray:none"
       id="circle43"
       cx="165.57072"
       cy="112.86345"
       rx="3.4898896"
       ry="3.218334" />
    <ellipse
       style="fill:#ff00ff;stroke:none;stroke-width:0.926421;stroke-dasharray:none"
       id="circle44"
       cx="168.47902"
       cy="79.339157"
       rx="3.4898896"
       ry="3.218334" />
    <path
       style="fill:none;stroke:#ff00ff;stroke-width:1.85284;stroke-dasharray:none"
       id="path44"
       sodipodi:type="arc"
       sodipodi:cx="54.094284"
       sodipodi:cy="94.800316"
       sodipodi:rx="30.854181"
       sodipodi:ry="17.725573"
       sodipodi:start="1.4032447"
       sodipodi:end="4.9794244"
       sodipodi:arc-type="arc"
       d="M 59.239798,112.27766 A 30.854181,17.725573 0 0 1 27.730656,104.00909 30.854181,17.725573 0 0 1 29.45304,84.1328 30.854181,17.725573 0 0 1 62.235872,77.702984"
       sodipodi:open="true" />
    <path
       style="fill:none;stroke:#ff00ff;stroke-width:1.85284;stroke-dasharray:none"
       id="path45"
       sodipodi:type="arc"
       sodipodi:cx="52.349262"
       sodipodi:cy="192.95953"
       sodipodi:rx="30.854181"
       sodipodi:ry="17.725573"
       sodipodi:start="1.4032447"
       sodipodi:end="4.9794244"
       sodipodi:arc-type="arc"
       d="M 57.494776,210.43688 A 30.854181,17.725573 0 0 1 25.985635,202.16831 30.854181,17.725573 0 0 1 27.708018,182.29202 30.854181,17.725573 0 0 1 60.49085,175.8622"
       sodipodi:open="true" />
    <path
       style="fill:none;stroke:#ff00ff;stroke-width:1.85284;stroke-dasharray:none"
       id="path48"
       sodipodi:type="arc"
       sodipodi:cx="48.511448"
       sodipodi:cy="144.6445"
       sodipodi:rx="46.091877"
       sodipodi:ry="31.24106"
       sodipodi:start="1.3163811"
       sodipodi:end="4.92277"
       sodipodi:arc-type="arc"
       d="M 60.111829,174.87993 A 46.091877,31.24106 0 0 1 11.080977,162.87493 46.091877,31.24106 0 0 1 9.9332776,127.54854 46.091877,31.24106 0 0 1 58.136931,114.09226"
       sodipodi:open="true" />
    <path
       style="fill:none;stroke:#ff00ff;stroke-width:1.85284;stroke-dasharray:none"
       id="path49"
       sodipodi:type="arc"
       sodipodi:cx="159.59718"
       sodipodi:cy="94.800316"
       sodipodi:rx="30.854181"
       sodipodi:ry="17.725573"
       sodipodi:start="1.4032447"
       sodipodi:end="4.9794244"
       sodipodi:arc-type="arc"
       d="m 164.7427,112.27766 a 30.854181,17.725573 0 0 1 -31.50914,-8.26857 30.854181,17.725573 0 0 1 1.72238,-19.87629 30.854181,17.725573 0 0 1 32.78283,-6.429816"
       sodipodi:open="true" />
    <path
       style="fill:none;stroke:#ff00ff;stroke-width:1.85284;stroke-dasharray:none"
       id="path50"
       sodipodi:type="arc"
       sodipodi:cx="157.85228"
       sodipodi:cy="192.95953"
       sodipodi:rx="30.854181"
       sodipodi:ry="17.725573"
       sodipodi:start="1.4032447"
       sodipodi:end="4.9794244"
       sodipodi:arc-type="arc"
       d="m 162.99779,210.43688 a 30.854181,17.725573 0 0 1 -31.50914,-8.26857 30.854181,17.725573 0 0 1 1.72239,-19.87629 30.854181,17.725573 0 0 1 32.78283,-6.42982"
       sodipodi:open="true" />
    <path
       style="fill:none;stroke:#ff00ff;stroke-width:1.85284;stroke-dasharray:none"
       id="path51"
       sodipodi:type="arc"
       sodipodi:cx="154.01454"
       sodipodi:cy="144.6445"
       sodipodi:rx="46.091877"
       sodipodi:ry="31.24106"
       sodipodi:start="1.3163811"
       sodipodi:end="4.92277"
       sodipodi:arc-type="arc"
       d="m 165.61492,174.87993 a 46.091877,31.24106 0 0 1 -49.03085,-12.005 46.091877,31.24106 0 0 1 -1.1477,-35.32639 46.091877,31.24106 0 0 1 48.20366,-13.45628"
       sodipodi:open="true" />
    <path
       style="fill:none;stroke:#ff00ff;stroke-width:1.67143;stroke-dasharray:none"
       id="path52"
       sodipodi:type="arc"
       sodipodi:cx="115.11257"
       sodipodi:cy="77.138474"
       sodipodi:rx="53.4599"
       sodipodi:ry="34.093445"
       sodipodi:start="3.1278428"
       sodipodi:end="0.052689476"
       sodipodi:arc-type="arc"
       d="M 61.657725,77.607239 A 53.4599,34.093445 0 0 1 88.772302,47.470592 53.4599,34.093445 0 0 1 143.2439,48.147033 53.4599,34.093445 0 0 1 168.49828,78.934008"
       sodipodi:open="true" />
  </g>
</svg>
