<svg width="1100" height="1801" viewBox="0 0 1100 1801" fill="none" xmlns="http://www.w3.org/2000/svg">
<path d="M12.2117 326.682C2.47064 342.918 0.847119 356.718 0.0353594 385.129C-0.7764 559.657 11.3999 757.727 140.47 923.325C226.516 1034.54 440.009 1243.97 513.879 1375.48C608.043 1543.51 649.443 1649.04 667.302 1744.01C673.796 1780.54 681.913 1800.03 703.019 1800.03C720.878 1800.03 737.112 1785.41 742.795 1739.96C755.783 1627.12 764.713 1481.82 724.936 1354.37C669.737 1178.22 551.22 1006.94 350.715 815.362C186.74 658.692 100.694 520.693 73.0937 368.894C69.8467 350.223 69.0347 340.482 57.6701 326.682C41.4349 304.765 18.7058 316.13 12.2117 326.682Z" fill="#F47B20"/>
<path d="M1089.41 278.789C1098.34 293.401 1099.96 305.577 1099.96 330.742C1100.77 487.411 1089.41 664.375 974.14 813.738C897.022 913.585 705.448 1101.1 638.884 1218.81C554.461 1368.98 517.12 1463.96 500.885 1550C494.39 1582.47 487.896 1600.33 468.414 1600.33C452.991 1600.33 437.567 1587.35 432.697 1546.76C421.332 1445.29 413.215 1314.59 448.12 1200.95C497.638 1042.65 603.977 889.232 783.376 717.139C930.305 576.705 1007.42 452.506 1031.78 316.13C1035.02 299.895 1035.83 290.965 1045.57 278.789C1063.43 259.307 1083.73 269.048 1089.41 278.789Z" fill="#569BBE"/>
<path d="M535.789 1013.43C497.637 1075.93 468.413 1137.63 448.931 1200.13C442.437 1219.61 438.378 1239.91 434.319 1261.01C466.79 1301.6 495.201 1340.57 513.872 1374.66C522.801 1390.89 530.918 1406.32 539.036 1420.93C560.954 1364.92 592.612 1299.98 638.071 1218.8C642.941 1209.87 648.624 1200.94 655.118 1191.2C623.459 1132.76 583.683 1073.5 535.789 1013.43Z" fill="#00467F"/>
<path d="M208.656 12.5291C198.915 28.7643 197.291 42.5642 196.48 70.9758C195.668 245.504 207.844 443.573 336.914 609.172C422.96 720.383 636.453 929.817 710.323 1061.32C804.487 1229.36 845.887 1334.88 863.745 1429.86C870.24 1466.39 878.357 1485.87 899.463 1485.87C917.322 1485.87 933.557 1471.26 939.239 1425.8C952.228 1312.97 961.156 1167.66 921.38 1040.22C866.181 864.065 747.664 692.783 547.159 501.208C383.184 344.539 297.138 206.54 269.538 54.7406C266.291 36.0701 265.479 26.329 254.114 12.5291C238.691 -9.38838 215.15 1.97625 208.656 12.5291Z" fill="#00467F"/>
</svg>
