<?xml version="1.0" encoding="UTF-8" standalone="no"?>
<!-- Created with Inkscape (http://www.inkscape.org/) -->

<svg
   width="210mm"
   height="297mm"
   viewBox="0 0 210 297"
   version="1.1"
   id="svg1"
   inkscape:version="1.4.3 (0d15f75, 2025-12-25)"
   sodipodi:docname="Ljosa hringur test.svg"
   xmlns:inkscape="http://www.inkscape.org/namespaces/inkscape"
   xmlns:sodipodi="http://sodipodi.sourceforge.net/DTD/sodipodi-0.dtd"
   xmlns="http://www.w3.org/2000/svg"
   xmlns:svg="http://www.w3.org/2000/svg">
  <sodipodi:namedview
     id="namedview1"
     pagecolor="#ffffff"
     bordercolor="#000000"
     borderopacity="0.25"
     inkscape:showpageshadow="2"
     inkscape:pageopacity="0.0"
     inkscape:pagecheckerboard="0"
     inkscape:deskcolor="#d1d1d1"
     inkscape:document-units="mm"
     inkscape:zoom="0.37059484"
     inkscape:cx="1191.328"
     inkscape:cy="648.95669"
     inkscape:window-width="1920"
     inkscape:window-height="1129"
     inkscape:window-x="384"
     inkscape:window-y="1432"
     inkscape:window-maximized="1"
     inkscape:current-layer="layer1" />
  <defs
     id="defs1" />
  <g
     inkscape:label="Layer 1"
     inkscape:groupmode="layer"
     id="layer1">
    <circle
       style="fill:none;stroke:#000000;stroke-width:0.550001;stroke-linecap:round;stroke-dasharray:none"
       id="path5"
       cx="119.27894"
       cy="-41.051682"
       r="50.725002" />
    <circle
       style="fill:none;stroke:#000000;stroke-width:0.550001;stroke-linecap:round;stroke-dasharray:none"
       id="circle5"
       cx="119.27894"
       cy="-41.051682"
       r="59.725002" />
    <rect
       style="fill:none;stroke:#000000;stroke-width:0.55;stroke-linecap:round;stroke-dasharray:none"
       id="rect5"
       width="2.45"
       height="17.22156"
       x="118.05394"
       y="-104.07008" />
    <rect
       style="fill:none;stroke:#000000;stroke-width:0.549999;stroke-linecap:round;stroke-dasharray:none"
       id="rect6"
       width="150.59134"
       height="139.21875"
       x="42.483269"
       y="-112.2985" />
    <path
       d="m 421.47938,97.796573 v -9.0026 A 59.725002,59.725002 0 0 0 362.9951,147.14448 h 9.00255 a 50.725002,50.725002 0 0 1 49.48173,-49.347907 z"
       style="fill:none;stroke:#000000;stroke-width:0.549999;stroke-linecap:round"
       id="path2" />
    <path
       d="M 208.10415,77.253181 V 216.47207 H 358.69547 V 77.253181 Z m 75.57058,11.53418 v 9.00255 A 50.725002,50.725002 0 0 0 234.193,147.1378 h -9.00255 a 59.725002,59.725002 0 0 1 58.48428,-58.350439 z m 2.44998,0 A 59.725002,59.725002 0 0 1 344.609,147.1378 h -9.00256 A 50.725002,50.725002 0 0 0 286.12471,97.789911 Z m -60.93994,60.800419 h 9.00151 a 50.725002,50.725002 0 0 0 49.48845,49.62229 v 9.00255 a 59.725002,59.725002 0 0 1 -58.48996,-58.62484 z m 110.42839,0 h 9.00152 a 59.725002,59.725002 0 0 1 -58.48997,58.62484 v -9.00255 a 50.725002,50.725002 0 0 0 49.48845,-49.62229 z"
       style="fill:none;stroke:#000000;stroke-width:0.549999;stroke-linecap:round"
       id="path1" />
    <rect
       style="fill:none;stroke:#000000;stroke-width:0.55;stroke-linecap:round;stroke-dasharray:none"
       id="rect7"
       width="2.45"
       height="18.483643"
       x="118.05394"
       y="4.4701695" />
    <rect
       style="fill:none;stroke:#000000;stroke-width:0.550001;stroke-linecap:round;stroke-dasharray:none"
       id="rect8"
       width="2.4499969"
       height="18.280893"
       x="-42.414124"
       y="-183.21913"
       transform="rotate(90)" />
    <rect
       style="fill:none;stroke:#000000;stroke-width:0.55;stroke-linecap:round;stroke-dasharray:none"
       id="rect9"
       width="2.4499969"
       height="18.357424"
       x="-42.414124"
       y="-73.619629"
       transform="rotate(90)" />
    <path
       d="m 433.97337,109.93359 v -9.0026 a 59.725002,59.725002 0 0 0 -58.48428,58.35051 h 9.00255 a 50.725002,50.725002 0 0 1 49.48173,-49.34791 z"
       style="fill:none;stroke:#000000;stroke-width:0.549999;stroke-linecap:round"
       id="path6" />
    <path
       d="m 443.96856,121.71364 v -9.0026 a 59.725002,59.725002 0 0 0 -58.48428,58.35051 h 9.00255 a 50.725002,50.725002 0 0 1 49.48173,-49.34791 z"
       style="fill:none;stroke:#000000;stroke-width:0.549999;stroke-linecap:round"
       id="path7" />
    <path
       d="m 456.35004,134.5646 v -9.0026 a 59.725002,59.725002 0 0 0 -58.48428,58.35051 h 9.00255 a 50.725002,50.725002 0 0 1 49.48173,-49.34791 z"
       style="fill:none;stroke:#000000;stroke-width:0.549999;stroke-linecap:round"
       id="path8" />
    <circle
       style="fill:none;stroke:#000000;stroke-width:0.550002;stroke-linecap:round;stroke-dasharray:none"
       id="circle8"
       cx="114.50829"
       cy="-189.10959"
       r="38.724998" />
    <circle
       style="fill:none;stroke:#000000;stroke-width:0.550001;stroke-linecap:round;stroke-dasharray:none"
       id="circle9"
       cx="114.50829"
       cy="-189.10959"
       r="47.724998" />
    <rect
       style="fill:none;stroke:#000000;stroke-width:0.55;stroke-linecap:round;stroke-dasharray:none"
       id="rect10"
       width="2.45"
       height="17.22156"
       x="113.28329"
       y="-238.9679" />
    <rect
       style="fill:none;stroke:#000000;stroke-width:0.549999;stroke-linecap:round;stroke-dasharray:none"
       id="rect11"
       width="109.45"
       height="109.45"
       x="59.783287"
       y="-243.83458" />
    <path
       d="M 228.67473,226.92539 V 336.37504 H 338.12489 V 226.92539 Z m 53.50009,7.0156 v 9.00358 a 38.724998,38.724998 0 0 0 -37.48091,37.48092 h -9.00359 a 47.724998,47.724998 0 0 1 46.4845,-46.4845 z m 2.44998,0 a 47.724998,47.724998 0 0 1 46.48399,46.4845 h -9.00359 a 38.724998,38.724998 0 0 0 -37.4804,-37.48092 z m -48.93448,48.93448 h 9.00359 a 38.724998,38.724998 0 0 0 37.48091,37.4804 v 9.00358 a 47.724998,47.724998 0 0 1 -46.4845,-46.48398 z m 86.41488,0 h 9.00359 a 47.724998,47.724998 0 0 1 -46.48399,46.48398 v -9.00358 a 38.724998,38.724998 0 0 0 37.4804,-37.4804 z"
       style="fill:none;stroke:#000000;stroke-width:0.549999;stroke-linecap:round"
       id="path14" />
    <rect
       style="fill:none;stroke:#000000;stroke-width:0.55;stroke-linecap:round;stroke-dasharray:none"
       id="rect12"
       width="2.45"
       height="18.483643"
       x="113.28329"
       y="-156.10193" />
    <rect
       style="fill:none;stroke:#000000;stroke-width:0.550001;stroke-linecap:round;stroke-dasharray:none"
       id="rect13"
       width="2.4499969"
       height="18.280893"
       x="-190.33458"
       y="-164.38824"
       transform="rotate(90)" />
    <rect
       style="fill:none;stroke:#000000;stroke-width:0.55;stroke-linecap:round;stroke-dasharray:none"
       id="rect14"
       width="2.4499969"
       height="18.357424"
       x="-190.33458"
       y="-82.948387"
       transform="rotate(90)" />
    <path
       d="m 403.90198,232.15613 v 9.00358 c -20.42643,0.64633 -36.83459,17.05449 -37.48091,37.48092 h -9.00359 c 0.652,-25.39771 21.08679,-45.8325 46.4845,-46.4845 z"
       style="fill:none;stroke:#000000;stroke-width:0.549999;stroke-linecap:round"
       id="path15"
       sodipodi:nodetypes="ccccc" />
    <path
       d="m 415.47989,255.67695 v 9.00358 c -20.42643,0.64633 -36.83459,17.05449 -37.48091,37.48092 h -9.00359 c 0.652,-25.39771 21.08679,-45.8325 46.4845,-46.4845 z"
       style="fill:none;stroke:#000000;stroke-width:0.549999;stroke-linecap:round"
       id="path16"
       sodipodi:nodetypes="ccccc" />
    <path
       d="m 427.4228,273.76133 v 9.00358 c -20.42643,0.64633 -36.83459,17.05449 -37.48091,37.48092 h -9.00359 c 0.652,-25.39771 21.08679,-45.8325 46.4845,-46.4845 z"
       style="fill:none;stroke:#000000;stroke-width:0.549999;stroke-linecap:round"
       id="path17"
       sodipodi:nodetypes="ccccc" />
    <path
       d="m 439.00071,290.182 v 9.00358 c -20.42643,0.64633 -36.83459,17.05449 -37.48091,37.48092 h -9.00359 c 0.652,-25.39771 21.08679,-45.8325 46.4845,-46.4845 z"
       style="fill:none;stroke:#000000;stroke-width:0.549999;stroke-linecap:round"
       id="path18"
       sodipodi:nodetypes="ccccc" />
    <circle
       style="fill:none;stroke:#000000;stroke-width:0.550002;stroke-linecap:round;stroke-dasharray:none"
       id="circle18"
       cx="-62.77644"
       cy="-42.836536"
       r="26.224998" />
    <circle
       style="fill:none;stroke:#000000;stroke-width:0.550001;stroke-linecap:round;stroke-dasharray:none"
       id="circle19"
       cx="-62.77644"
       cy="-42.836536"
       r="35.724998" />
    <rect
       style="fill:none;stroke:#000000;stroke-width:0.55;stroke-linecap:round;stroke-dasharray:none"
       id="rect19"
       width="2.45"
       height="17.22156"
       x="-64.001442"
       y="-79.227257" />
    <rect
       style="fill:none;stroke:#000000;stroke-width:0.549999;stroke-linecap:round;stroke-dasharray:none"
       id="rect20"
       width="79.450005"
       height="79.450005"
       x="-102.40679"
       y="-82.199043" />
    <path
       d="m 243.67485,343.13211 v 79.44994 h 79.44992 v -79.44994 z m 38.4054,3.6587 v 9.50743 a 26.224998,26.224998 0 0 0 -24.9716,24.9716 h -9.50743 a 35.724998,35.724998 0 0 1 34.47903,-34.47903 z m 2.44998,0 a 35.724998,35.724998 0 0 1 34.47903,34.47903 h -9.50794 a 26.224998,26.224998 0 0 0 -24.97109,-24.9716 z m -36.92901,36.92901 h 9.50743 a 26.224998,26.224998 0 0 0 24.9716,24.97108 v 9.50743 a 35.724998,35.724998 0 0 1 -34.47903,-34.47851 z m 61.9001,0 h 9.50794 a 35.724998,35.724998 0 0 1 -34.47903,34.47851 v -9.50743 a 26.224998,26.224998 0 0 0 24.97109,-24.97108 z"
       style="fill:none;stroke:#000000;stroke-width:0.549999;stroke-linecap:round"
       id="path23" />
    <rect
       style="fill:none;stroke:#000000;stroke-width:0.55;stroke-linecap:round;stroke-dasharray:none"
       id="rect21"
       width="2.45"
       height="18.483643"
       x="-64.001442"
       y="-22.91785" />
    <rect
       style="fill:none;stroke:#000000;stroke-width:0.550001;stroke-linecap:round;stroke-dasharray:none"
       id="rect22"
       width="2.4499969"
       height="18.280893"
       x="-44.061527"
       y="25.073454"
       transform="rotate(90)" />
    <rect
       style="fill:none;stroke:#000000;stroke-width:0.55;stroke-linecap:round;stroke-dasharray:none"
       id="rect23"
       width="2.4499969"
       height="18.357424"
       x="-44.061527"
       y="82.553421"
       transform="rotate(90)" />
    <circle
       style="fill:none;stroke:#000000;stroke-width:0.550002;stroke-linecap:round;stroke-dasharray:none"
       id="circle23"
       cx="-64.276443"
       cy="-134.71156"
       r="14.724999" />
    <circle
       style="fill:none;stroke:#000000;stroke-width:0.550001;stroke-linecap:round;stroke-dasharray:none"
       id="circle24"
       cx="-64.276443"
       cy="-134.71156"
       r="24.225" />
    <rect
       style="fill:none;stroke:#000000;stroke-width:0.55;stroke-linecap:round;stroke-dasharray:none"
       id="rect24"
       width="2.45"
       height="17.22156"
       x="-65.501442"
       y="-160.51898" />
    <rect
       style="fill:none;stroke:#000000;stroke-width:0.549999;stroke-linecap:round;stroke-dasharray:none"
       id="rect25"
       width="59.450001"
       height="59.450001"
       x="-94.001442"
       y="-166.07393" />
    <path
       d="m 255.75295,429.33912 v 59.45012 h 59.45012 v -59.45012 z m 28.50007,7.16856 v 9.51983 a 14.724999,14.724999 0 0 0 -13.44879,13.44931 h -9.52035 a 24.225,24.225 0 0 1 22.96914,-22.96914 z m 2.44998,0 a 24.225,24.225 0 0 1 22.96914,22.96914 h -9.52035 A 14.724999,14.724999 0 0 0 286.703,446.02751 Z m -25.41912,25.41912 h 9.52035 a 14.724999,14.724999 0 0 0 13.44879,13.44879 v 9.51983 A 24.225,24.225 0 0 1 261.28388,461.9268 Z m 38.86791,0 h 9.52035 A 24.225,24.225 0 0 1 286.703,484.89542 v -9.51983 a 14.724999,14.724999 0 0 0 13.44879,-13.44879 z"
       style="fill:none;stroke:#000000;stroke-width:0.549999;stroke-linecap:round"
       id="path28" />
    <rect
       style="fill:none;stroke:#000000;stroke-width:0.55;stroke-linecap:round;stroke-dasharray:none"
       id="rect26"
       width="2.45"
       height="18.483643"
       x="-65.501442"
       y="-126.96355" />
    <rect
       style="fill:none;stroke:#000000;stroke-width:0.550001;stroke-linecap:round;stroke-dasharray:none"
       id="rect27"
       width="2.4499969"
       height="18.280893"
       x="-135.93655"
       y="37.723587"
       transform="rotate(90)" />
    <rect
       style="fill:none;stroke:#000000;stroke-width:0.55;stroke-linecap:round;stroke-dasharray:none"
       id="rect28"
       width="2.4499969"
       height="18.357424"
       x="-135.93655"
       y="71.920319"
       transform="rotate(90)" />
    <circle
       style="fill:none;stroke:#000000;stroke-width:0.550001;stroke-linecap:round;stroke-dasharray:none"
       id="circle28"
       cx="105"
       cy="148.5"
       r="69.224998" />
    <circle
       style="fill:none;stroke:#000000;stroke-width:0.550001;stroke-linecap:round;stroke-dasharray:none"
       id="circle29"
       cx="105"
       cy="148.5"
       r="77.224998" />
    <rect
       style="fill:none;stroke:#000000;stroke-width:0.55;stroke-linecap:round;stroke-dasharray:none"
       id="rect29"
       width="2.45"
       height="17.22156"
       x="103.775"
       y="69.67144" />
    <rect
       style="fill:none;stroke:#000000;stroke-width:0.55;stroke-linecap:round;stroke-dasharray:none"
       id="rect30"
       width="169.45"
       height="169.45"
       x="20.275002"
       y="63.775002" />
    <path
       d="M 211.43526,-102.65026 V 66.79986 h 169.44961 v -169.45012 z m 83.49982,7.50962 v 8.00106 a 69.224998,69.224998 0 0 0 -67.98913,67.98965 h -8.00107 a 77.224998,77.224998 0 0 1 75.9902,-75.99071 z m 2.44998,0 a 77.224998,77.224998 0 0 1 75.99019,75.99071 h -8.00106 a 69.224998,69.224998 0 0 0 -67.98913,-67.98965 z m -78.44018,78.44069 h 8.00107 a 69.224998,69.224998 0 0 0 67.98913,67.98913 v 8.00106 a 77.224998,77.224998 0 0 1 -75.9902,-75.99019 z m 146.42931,0 h 8.00106 a 77.224998,77.224998 0 0 1 -75.99019,75.99019 v -8.00106 a 69.224998,69.224998 0 0 0 67.98913,-67.98913 z"
       style="fill:none;stroke:#000000;stroke-width:0.55;stroke-linecap:round"
       id="path33" />
    <rect
       style="fill:none;stroke:#000000;stroke-width:0.55;stroke-linecap:round;stroke-dasharray:none"
       id="rect31"
       width="2.45"
       height="18.483643"
       x="103.775"
       y="209.43254" />
    <rect
       style="fill:none;stroke:#000000;stroke-width:0.550001;stroke-linecap:round;stroke-dasharray:none"
       id="rect32"
       width="2.4499969"
       height="18.280893"
       x="147.27499"
       y="-183.21484"
       transform="rotate(90)" />
    <rect
       style="fill:none;stroke:#000000;stroke-width:0.55;stroke-linecap:round;stroke-dasharray:none"
       id="rect33"
       width="2.4499969"
       height="18.357424"
       x="147.27499"
       y="-42.923775"
       transform="rotate(90)" />
  </g>
</svg>
