<?xml version="1.0" encoding="UTF-8" standalone="no"?>
<!-- Created with Inkscape (http://www.inkscape.org/) -->

<svg
   width="210mm"
   height="297mm"
   viewBox="0 0 210 297"
   version="1.1"
   id="svg1"
   inkscape:version="1.4 (86a8ad7, 2024-10-11)"
   sodipodi:docname="NeoPixelhringir.svg"
   xmlns:inkscape="http://www.inkscape.org/namespaces/inkscape"
   xmlns:sodipodi="http://sodipodi.sourceforge.net/DTD/sodipodi-0.dtd"
   xmlns="http://www.w3.org/2000/svg"
   xmlns:svg="http://www.w3.org/2000/svg">
  <sodipodi:namedview
     id="namedview1"
     pagecolor="#ffffff"
     bordercolor="#000000"
     borderopacity="0.25"
     inkscape:showpageshadow="2"
     inkscape:pageopacity="0.0"
     inkscape:pagecheckerboard="0"
     inkscape:deskcolor="#d1d1d1"
     inkscape:document-units="mm"
     inkscape:zoom="0.37059484"
     inkscape:cx="1766.0796"
     inkscape:cy="424.99243"
     inkscape:window-width="1920"
     inkscape:window-height="1009"
     inkscape:window-x="-8"
     inkscape:window-y="-8"
     inkscape:window-maximized="1"
     inkscape:current-layer="layer1"
     showgrid="false" />
  <defs
     id="defs1" />
  <g
     inkscape:label="Layer 1"
     inkscape:groupmode="layer"
     id="layer1">
    <circle
       style="fill:none;stroke:#000000;stroke-width:0.550001;stroke-linecap:round;stroke-dasharray:none"
       id="path5"
       cx="119.27894"
       cy="-41.051682"
       r="50.725002" />
    <circle
       style="fill:none;stroke:#000000;stroke-width:0.550001;stroke-linecap:round;stroke-dasharray:none"
       id="circle5"
       cx="119.27894"
       cy="-41.051682"
       r="59.725002" />
    <rect
       style="fill:none;stroke:#000000;stroke-width:0.55;stroke-linecap:round;stroke-dasharray:none"
       id="rect5"
       width="2.45"
       height="17.22156"
       x="118.05394"
       y="-104.07008" />
    <rect
       style="fill:none;stroke:#000000;stroke-width:0.549999;stroke-linecap:round;stroke-dasharray:none"
       id="rect6"
       width="150.59134"
       height="139.21875"
       x="42.483269"
       y="-112.2985" />
    <path
       d="m 421.47938,97.796573 v -9.0026 A 59.725002,59.725002 0 0 0 362.9951,147.14448 h 9.00255 a 50.725002,50.725002 0 0 1 49.48173,-49.347907 z"
       style="fill:none;stroke:#000000;stroke-width:0.549999;stroke-linecap:round"
       id="path2" />
    <path
       d="M 208.10415,77.253181 V 216.47207 Z m 75.57058,11.53418 v 9.00255 C 256.67322,98.44217 234.91839,120.13815 234.193,147.1378 h -9.00255 c 0.72927,-31.97093 26.51177,-57.694421 58.48428,-58.350439 z m 2.44998,0 c 31.97252,0.656012 57.75502,26.379509 58.48429,58.350439 h -9.00256 C 334.88105,120.13815 313.12622,98.44217 286.12471,97.789911 Z m -60.93994,60.800419 h 9.00151 c 0.58156,27.10933 22.38079,48.96752 49.48845,49.62229 v 9.00255 c -32.0788,-0.65817 -57.90568,-26.54461 -58.48996,-58.62484 z m 110.42839,0 h 9.00152 c -0.58428,32.08024 -26.41117,57.96667 -58.48997,58.62484 v -9.00255 c 27.10766,-0.65477 48.90689,-22.51296 49.48845,-49.62229 z"
       style="fill:none;stroke:#000000;stroke-width:0.549999;stroke-linecap:round"
       id="path1"
       sodipodi:nodetypes="ccccccccccccccccccccccc" />
    <rect
       style="fill:none;stroke:#000000;stroke-width:0.55;stroke-linecap:round;stroke-dasharray:none"
       id="rect7"
       width="2.45"
       height="18.483643"
       x="118.05394"
       y="4.4701695" />
    <rect
       style="fill:none;stroke:#000000;stroke-width:0.550001;stroke-linecap:round;stroke-dasharray:none"
       id="rect8"
       width="2.4499969"
       height="18.280893"
       x="-42.414124"
       y="-183.21913"
       transform="rotate(90)" />
    <rect
       style="fill:none;stroke:#000000;stroke-width:0.55;stroke-linecap:round;stroke-dasharray:none"
       id="rect9"
       width="2.4499969"
       height="18.357424"
       x="-42.414124"
       y="-73.619629"
       transform="rotate(90)" />
    <path
       d="m 433.97337,109.93359 v -9.0026 a 59.725002,59.725002 0 0 0 -58.48428,58.35051 h 9.00255 a 50.725002,50.725002 0 0 1 49.48173,-49.34791 z"
       style="fill:none;stroke:#000000;stroke-width:0.549999;stroke-linecap:round"
       id="path6" />
    <path
       d="m 443.96856,121.71364 v -9.0026 a 59.725002,59.725002 0 0 0 -58.48428,58.35051 h 9.00255 a 50.725002,50.725002 0 0 1 49.48173,-49.34791 z"
       style="fill:none;stroke:#000000;stroke-width:0.549999;stroke-linecap:round"
       id="path7" />
    <path
       d="m 456.35004,134.5646 v -9.0026 a 59.725002,59.725002 0 0 0 -58.48428,58.35051 h 9.00255 a 50.725002,50.725002 0 0 1 49.48173,-49.34791 z"
       style="fill:none;stroke:#000000;stroke-width:0.549999;stroke-linecap:round"
       id="path8" />
    <circle
       style="fill:none;stroke:#000000;stroke-width:0.550002;stroke-linecap:round;stroke-dasharray:none"
       id="circle8"
       cx="114.50829"
       cy="-189.10959"
       r="38.724998" />
    <circle
       style="fill:none;stroke:#000000;stroke-width:0.550001;stroke-linecap:round;stroke-dasharray:none"
       id="circle9"
       cx="114.50829"
       cy="-189.10959"
       r="47.724998" />
    <rect
       style="fill:none;stroke:#000000;stroke-width:0.55;stroke-linecap:round;stroke-dasharray:none"
       id="rect10"
       width="2.45"
       height="17.22156"
       x="113.28329"
       y="-238.9679" />
    <rect
       style="fill:none;stroke:#000000;stroke-width:0.549999;stroke-linecap:round;stroke-dasharray:none"
       id="rect11"
       width="109.45"
       height="109.45"
       x="59.783287"
       y="-243.83458" />
    <path
       d="M 228.67473,336.37504 C 0,0 0,0 228.67473,336.37504 Z m 53.50009,-102.43405 v 9.00358 c -20.42643,0.64633 -36.83459,17.05449 -37.48091,37.48092 h -9.00359 c 0.652,-25.39771 21.08679,-45.8325 46.4845,-46.4845 z m 2.44998,0 c 25.39751,0.65227 45.832,21.08698 46.48399,46.4845 h -9.00359 c -0.64631,-20.42624 -17.05417,-36.83433 -37.4804,-37.48092 z m -48.93448,48.93448 h 9.00359 c 0.64659,20.42623 17.05467,36.83409 37.48091,37.4804 v 9.00358 c -25.39751,-0.65199 -45.83223,-21.08647 -46.4845,-46.48398 z m 86.41488,0 h 9.00359 c -0.65226,25.39732 -21.08667,45.83172 -46.48399,46.48398 v -9.00358 c 20.42604,-0.64658 36.83382,-17.05436 37.4804,-37.4804 z"
       style="fill:none;stroke:#000000;stroke-width:0.549999;stroke-linecap:round"
       id="path14"
       sodipodi:nodetypes="cccccccccccccccccccccc" />
    <rect
       style="fill:none;stroke:#000000;stroke-width:0.55;stroke-linecap:round;stroke-dasharray:none"
       id="rect12"
       width="2.45"
       height="18.483643"
       x="113.28329"
       y="-156.10193" />
    <rect
       style="fill:none;stroke:#000000;stroke-width:0.550001;stroke-linecap:round;stroke-dasharray:none"
       id="rect13"
       width="2.4499969"
       height="18.280893"
       x="-190.33458"
       y="-164.38824"
       transform="rotate(90)" />
    <rect
       style="fill:none;stroke:#000000;stroke-width:0.55;stroke-linecap:round;stroke-dasharray:none"
       id="rect14"
       width="2.4499969"
       height="18.357424"
       x="-190.33458"
       y="-82.948387"
       transform="rotate(90)" />
    <path
       d="m 403.90198,232.15613 v 9.00358 c -20.42643,0.64633 -36.83459,17.05449 -37.48091,37.48092 h -9.00359 c 0.652,-25.39771 21.08679,-45.8325 46.4845,-46.4845 z"
       style="fill:none;stroke:#000000;stroke-width:0.549999;stroke-linecap:round"
       id="path15"
       sodipodi:nodetypes="ccccc" />
    <path
       d="m 415.47989,255.67695 v 9.00358 c -20.42643,0.64633 -36.83459,17.05449 -37.48091,37.48092 h -9.00359 c 0.652,-25.39771 21.08679,-45.8325 46.4845,-46.4845 z"
       style="fill:none;stroke:#000000;stroke-width:0.549999;stroke-linecap:round"
       id="path16"
       sodipodi:nodetypes="ccccc" />
    <path
       d="m 427.4228,273.76133 v 9.00358 c -20.42643,0.64633 -36.83459,17.05449 -37.48091,37.48092 h -9.00359 c 0.652,-25.39771 21.08679,-45.8325 46.4845,-46.4845 z"
       style="fill:none;stroke:#000000;stroke-width:0.549999;stroke-linecap:round"
       id="path17"
       sodipodi:nodetypes="ccccc" />
    <path
       d="m 439.00071,290.182 v 9.00358 c -20.42643,0.64633 -36.83459,17.05449 -37.48091,37.48092 h -9.00359 c 0.652,-25.39771 21.08679,-45.8325 46.4845,-46.4845 z"
       style="fill:none;stroke:#000000;stroke-width:0.549999;stroke-linecap:round"
       id="path18"
       sodipodi:nodetypes="ccccc" />
    <circle
       style="fill:none;stroke:#000000;stroke-width:0.550002;stroke-linecap:round;stroke-dasharray:none"
       id="circle18"
       cx="-62.77644"
       cy="-42.836536"
       r="26.224998" />
    <circle
       style="fill:none;stroke:#000000;stroke-width:0.550001;stroke-linecap:round;stroke-dasharray:none"
       id="circle19"
       cx="-62.77644"
       cy="-42.836536"
       r="35.724998" />
    <rect
       style="fill:none;stroke:#000000;stroke-width:0.55;stroke-linecap:round;stroke-dasharray:none"
       id="rect19"
       width="2.45"
       height="17.22156"
       x="-64.001442"
       y="-79.227257" />
    <rect
       style="fill:none;stroke:#000000;stroke-width:0.549999;stroke-linecap:round;stroke-dasharray:none"
       id="rect20"
       width="79.450005"
       height="79.450005"
       x="-102.40679"
       y="-82.199043" />
    <path
       d="M 323.12477,422.58205 C 0,0 0,0 323.12477,422.58205 Z m -41.04452,-75.79124 v 9.50743 c -13.52093,0.63216 -24.33944,11.45067 -24.9716,24.9716 h -9.50743 c 0.64394,-18.76904 15.70999,-33.83509 34.47903,-34.47903 z m 2.44998,0 c 18.76904,0.64394 33.83509,15.70999 34.47903,34.47903 h -9.50794 c -0.63213,-13.52075 -11.45035,-24.33919 -24.97109,-24.9716 z m -36.92901,36.92901 h 9.50743 c 0.63242,13.52073 11.45086,24.33895 24.9716,24.97108 v 9.50743 C 263.3114,417.5544 248.24543,402.48866 247.60122,383.71982 Z m 61.9001,0 h 9.50794 c -0.64421,18.76884 -15.71018,33.83458 -34.47903,34.47851 v -9.50743 c 13.52055,-0.63239 24.3387,-11.45053 24.97109,-24.97108 z"
       style="fill:none;stroke:#000000;stroke-width:0.549999;stroke-linecap:round"
       id="path23"
       sodipodi:nodetypes="cccccccccccccccccccccc" />
    <rect
       style="fill:none;stroke:#000000;stroke-width:0.55;stroke-linecap:round;stroke-dasharray:none"
       id="rect21"
       width="2.45"
       height="18.483643"
       x="-64.001442"
       y="-22.91785" />
    <rect
       style="fill:none;stroke:#000000;stroke-width:0.550001;stroke-linecap:round;stroke-dasharray:none"
       id="rect22"
       width="2.4499969"
       height="18.280893"
       x="-44.061527"
       y="25.073454"
       transform="rotate(90)" />
    <rect
       style="fill:none;stroke:#000000;stroke-width:0.55;stroke-linecap:round;stroke-dasharray:none"
       id="rect23"
       width="2.4499969"
       height="18.357424"
       x="-44.061527"
       y="82.553421"
       transform="rotate(90)" />
    <circle
       style="fill:none;stroke:#000000;stroke-width:0.550002;stroke-linecap:round;stroke-dasharray:none"
       id="circle23"
       cx="-64.276443"
       cy="-134.71156"
       r="14.724999" />
    <circle
       style="fill:none;stroke:#000000;stroke-width:0.550001;stroke-linecap:round;stroke-dasharray:none"
       id="circle24"
       cx="-64.276443"
       cy="-134.71156"
       r="24.225" />
    <rect
       style="fill:none;stroke:#000000;stroke-width:0.55;stroke-linecap:round;stroke-dasharray:none"
       id="rect24"
       width="2.45"
       height="17.22156"
       x="-65.501442"
       y="-160.51898" />
    <rect
       style="fill:none;stroke:#000000;stroke-width:0.549999;stroke-linecap:round;stroke-dasharray:none"
       id="rect25"
       width="59.450001"
       height="59.450001"
       x="-94.001442"
       y="-166.07393" />
    <path
       d="m 284.25302,436.50768 v 9.51983 c -7.16534,0.59827 -12.8508,6.28395 -13.44879,13.44931 h -9.52035 c 0.62858,-12.41583 10.55331,-22.34056 22.96914,-22.96914 z m 2.44998,0 c 12.41583,0.62858 22.34056,10.55331 22.96914,22.96914 h -9.52035 c -0.59799,-7.16536 -6.28345,-12.85104 -13.44879,-13.44931 z m -25.41912,25.41912 h 9.52035 c 0.59823,7.16516 6.28363,12.85056 13.44879,13.44879 v 9.51983 c -12.41564,-0.62855 -22.3403,-10.553 -22.96914,-22.96862 z m 38.86791,0 h 9.52035 c -0.62884,12.41562 -10.5535,22.34007 -22.96914,22.96862 v -9.51983 c 7.16516,-0.59823 12.85056,-6.28363 13.44879,-13.44879 z"
       style="fill:none;stroke:#000000;stroke-width:0.549999;stroke-linecap:round"
       id="path28"
       sodipodi:nodetypes="cccccccccccccccccccc" />
    <rect
       style="fill:none;stroke:#000000;stroke-width:0.55;stroke-linecap:round;stroke-dasharray:none"
       id="rect26"
       width="2.45"
       height="18.483643"
       x="-65.501442"
       y="-126.96355" />
    <rect
       style="fill:none;stroke:#000000;stroke-width:0.550001;stroke-linecap:round;stroke-dasharray:none"
       id="rect27"
       width="2.4499969"
       height="18.280893"
       x="-135.93655"
       y="37.723587"
       transform="rotate(90)" />
    <rect
       style="fill:none;stroke:#000000;stroke-width:0.55;stroke-linecap:round;stroke-dasharray:none"
       id="rect28"
       width="2.4499969"
       height="18.357424"
       x="-135.93655"
       y="71.920319"
       transform="rotate(90)" />
    <circle
       style="fill:none;stroke:#000000;stroke-width:0.550001;stroke-linecap:round;stroke-dasharray:none"
       id="circle28"
       cx="105"
       cy="148.5"
       r="69.224998" />
    <circle
       style="fill:none;stroke:#000000;stroke-width:0.550001;stroke-linecap:round;stroke-dasharray:none"
       id="circle29"
       cx="105"
       cy="148.5"
       r="77.224998" />
    <rect
       style="fill:none;stroke:#000000;stroke-width:0.55;stroke-linecap:round;stroke-dasharray:none"
       id="rect29"
       width="2.45"
       height="17.22156"
       x="103.775"
       y="69.67144" />
    <rect
       style="fill:none;stroke:#000000;stroke-width:0.55;stroke-linecap:round;stroke-dasharray:none"
       id="rect30"
       width="169.45"
       height="169.45"
       x="20.275002"
       y="63.775002" />
    <path
       d="m 292.07931,-110.13343 v 8.00106 c -37.27288,0.6597 -67.32971,30.716763 -67.98913,67.989652 h -8.00107 c 0.66119,-41.691367 34.29884,-75.329242 75.9902,-75.990712 z m 2.44998,0 c 41.69136,0.66148 75.329,34.299348 75.99019,75.990712 h -8.00106 C 361.859,-71.415607 331.80217,-101.47267 294.52929,-102.13237 Z m -78.44018,78.440692 h 8.00107 c 0.65969,37.2726858 30.71644,67.329437 67.98913,67.98913 v 8.00106 c -41.69116,-0.661463 -75.32873,-34.2990262 -75.9902,-75.99019 z m 146.42931,0 h 8.00106 c -0.66147,41.6911598 -34.29903,75.328722 -75.99019,75.99019 v -8.00106 c 37.27269,-0.659693 67.32944,-30.7164442 67.98913,-67.98913 z"
       style="fill:none;stroke:#000000;stroke-width:0.55;stroke-linecap:round"
       id="path33"
       sodipodi:nodetypes="cccccccccccccccccccc" />
    <rect
       style="fill:none;stroke:#000000;stroke-width:0.55;stroke-linecap:round;stroke-dasharray:none"
       id="rect31"
       width="2.45"
       height="18.483643"
       x="103.775"
       y="209.43254" />
    <rect
       style="fill:none;stroke:#000000;stroke-width:0.550001;stroke-linecap:round;stroke-dasharray:none"
       id="rect32"
       width="2.4499969"
       height="18.280893"
       x="147.27499"
       y="-183.21484"
       transform="rotate(90)" />
    <rect
       style="fill:none;stroke:#000000;stroke-width:0.55;stroke-linecap:round;stroke-dasharray:none"
       id="rect33"
       width="2.4499969"
       height="18.357424"
       x="147.27499"
       y="-42.923775"
       transform="rotate(90)" />
  </g>
</svg>
